<?xml version="1.0" encoding="UTF-8"?>
<svg width="83px" height="50px" viewBox="0 0 83 50" version="1.1" xmlns="http://www.w3.org/2000/svg" xmlns:xlink="http://www.w3.org/1999/xlink">
    <!-- Generator: Sketch 49.3 (51167) - http://www.bohemiancoding.com/sketch -->
    <title>Page 1</title>
    <desc>Created with Sketch.</desc>
    <defs>
        <polygon id="path-1" points="0 0.340597297 82.9944667 0.340597297 82.9944667 49.98 0 49.98"></polygon>
    </defs>
    <g id="Page-1" stroke="none" stroke-width="1" fill="none" fill-rule="evenodd">
        <g id="Desktop" transform="translate(-1449.000000, -1758.000000)">
            <g id="Group-7" transform="translate(281.000000, 1738.000000)">
                <g id="Group-4" transform="translate(1060.000000, 20.000000)">
                    <g id="Page-1" transform="translate(108.000000, 0.000000)">
                        <g id="Group-3">
                            <mask id="mask-2" fill="white">
                                <use xlink:href="#path-1"></use>
                            </mask>
                            <g id="Clip-2"></g>
                            <path d="M41.4977867,47.2220027 C25.0596367,47.2220027 15.1356033,37.0592189 3.81440333,25.1541649 C17.2853033,11.1525973 27.9964533,3.09873243 41.4977867,3.09873243 C57.4822033,3.09873243 69.9737033,14.5888946 79.2697033,25.3181919 C70.1286367,34.8193541 57.7519533,47.2220027 41.4977867,47.2220027 M41.4977867,0.340597297 C26.3281533,0.340597297 14.5020367,9.80454324 -0.00083,25.1514081 C12.4962033,38.2721919 22.9804867,49.9801378 41.4977867,49.9801378 C60.0150867,49.9801378 73.62432,35.1598135 82.99502,25.4284622 C73.4029867,14.029273 59.79237,0.340597297 41.4977867,0.340597297" id="Fill-1" fill="#9348FF" mask="url(#mask-2)"></path>
                        </g>
                        <path d="M41.5006875,38.2506873 C33.9186216,38.2506873 27.7501146,32.0826043 27.7501146,24.5 C27.7501146,16.9173957 33.9186216,10.7493127 41.5006875,10.7493127 C49.0813784,10.7493127 55.2512605,16.9173957 55.2512605,24.5 C55.2512605,32.0826043 49.0813784,38.2506873 41.5006875,38.2506873 M41.5006875,8 C32.4019334,8 25,15.4011497 25,24.5 C25,33.5988503 32.4019334,41 41.5006875,41 C50.5994416,41 58,33.5988503 58,24.5 C58,15.4011497 50.5994416,8 41.5006875,8" id="Fill-4" fill="#9348FF"></path>
                        <path d="M41.5,31.2853267 C37.7583571,31.2853267 34.7142857,28.2409854 34.7142857,24.4993217 C34.7142857,20.757658 37.7583571,17.7133167 41.5,17.7133167 C45.2416429,17.7133167 48.2857143,20.757658 48.2857143,24.4993217 C48.2857143,28.2409854 45.2416429,31.2853267 41.5,31.2853267 M41.5,15 C36.2627857,15 32,19.2612638 32,24.4993217 C32,29.7373795 36.2627857,34 41.5,34 C46.7372143,34 51,29.7373795 51,24.4993217 C51,19.2612638 46.7372143,15 41.5,15" id="Fill-6" fill="#9348FF"></path>
                    </g>
                </g>
            </g>
        </g>
    </g>
</svg>