<?xml version="1.0" encoding="UTF-8"?>
<svg width="75px" height="75px" viewBox="0 0 75 75" version="1.1" xmlns="http://www.w3.org/2000/svg" xmlns:xlink="http://www.w3.org/1999/xlink">
    <!-- Generator: Sketch 49.3 (51167) - http://www.bohemiancoding.com/sketch -->
    <title>Page 1</title>
    <desc>Created with Sketch.</desc>
    <defs></defs>
    <g id="Page-1" stroke="none" stroke-width="1" fill="none" fill-rule="evenodd">
        <g id="Desktop" transform="translate(-919.000000, -1738.000000)" fill="#9348FF">
            <g id="Pra-quem-é" transform="translate(281.000000, 1575.000000)">
                <g id="Group-7" transform="translate(0.000000, 163.000000)">
                    <g id="Group-5" transform="translate(502.000000, 0.000000)">
                        <g id="Page-1" transform="translate(136.000000, 0.000000)">
                            <path d="M37.5007488,0 L22.52411,15.119205 L22.52411,9.07242982 L10.546992,9.07242982 L10.546992,27.2142668 L0,37.8629992 L2.11598746,40 L37.5007488,4.27702422 L72.882515,40 L75,37.8629992 L37.5007488,0 Z M13.5405227,12.0950618 L19.5290817,12.0950618 L19.5290817,18.1433483 L13.5405227,24.1916349 L13.5405227,12.0950618 Z" id="Fill-1"></path>
                            <path d="M10,38.428789 L10,75 L31.0008334,75 L31.0008334,53.6671744 L43.0006667,53.6671744 L43.0006667,75 L64,75 L64,38.428789 L37.0015002,11 L10,38.428789 Z M12.9988332,39.6915461 L37.0015002,15.3092155 L61.0011668,39.6915461 L61.0011668,71.9535415 L46.0010001,71.9535415 L46.0010001,53.6671744 L46.0010001,50.6207159 L43.0006667,50.6207159 L31.0008334,50.6207159 L28.0005001,50.6207159 L28.0005001,53.6671744 L28.0005001,71.9535415 L12.9988332,71.9535415 L12.9988332,39.6915461 Z" id="Fill-2"></path>
                        </g>
                    </g>
                </g>
            </g>
        </g>
    </g>
</svg>