<?xml version="1.0" encoding="UTF-8"?>
<svg width="107px" height="64px" viewBox="0 0 107 64" version="1.1" xmlns="http://www.w3.org/2000/svg" xmlns:xlink="http://www.w3.org/1999/xlink">
    <!-- Generator: Sketch 49.3 (51167) - http://www.bohemiancoding.com/sketch -->
    <title>Page 1</title>
    <desc>Created with Sketch.</desc>
    <defs>
        <polygon id="path-1" points="0 0 107 0 107 64 0 64"></polygon>
    </defs>
    <g id="Page-1" stroke="none" stroke-width="1" fill="none" fill-rule="evenodd">
        <g id="Desktop" transform="translate(-384.000000, -1738.000000)">
            <g id="Pra-quem-é" transform="translate(281.000000, 1575.000000)">
                <g id="Group-7" transform="translate(0.000000, 163.000000)">
                    <g id="Group">
                        <g id="Page-1" transform="translate(103.000000, 0.000000)">
                            <mask id="mask-2" fill="white">
                                <use xlink:href="#path-1"></use>
                            </mask>
                            <g id="Clip-2"></g>
                            <path d="M103.952131,54.869313 L82.2878812,54.869313 L82.2878812,53.4743047 C82.2878812,51.8267649 81.7057383,49.9997148 79.3329725,48.9804611 C77.6932192,48.2639411 74.5447709,47.0727835 71.202783,45.8953173 C71.1601128,45.8801046 71.1204905,45.8633706 71.0778203,45.8481578 C73.0177887,45.1742334 74.9821401,44.5276919 76.5594121,44.0621821 C79.0571404,43.2726408 79.0571404,41.0013787 79.0571404,39.6444022 C79.0571404,37.6789161 78.7934998,36.201759 78.2265962,34.9923461 C77.8273254,34.148039 77.3396664,32.6434989 77.1750815,31.4021393 L77.0562147,30.501545 L76.4618803,29.8139292 C76.2774842,29.6024721 75.6465754,28.7399097 75.2046345,26.5294985 C74.8815604,24.9154267 75.0126187,24.57314 75.1162463,24.306917 C75.1909191,24.1152365 75.26102,23.9220347 75.3158817,23.7075351 L75.332645,23.6451628 L75.3463604,23.5812693 C75.63286,22.236463 75.2290174,18.5686713 74.9242306,16.8952698 C74.7886004,16.152888 74.9882358,13.8937961 76.4527367,12.0211077 C77.3594776,10.8649394 79.1241935,9.44559068 82.3976044,9.21435702 L84.6850298,9.21435702 C87.3641064,9.39843119 89.3878911,10.3431424 90.7030464,12.0211077 C92.1705952,13.8968386 92.3671827,16.1513668 92.2330765,16.8967911 C91.9465768,18.4804374 91.5122556,22.1938674 91.8139946,23.5964821 L91.8383775,23.7105776 L91.8719041,23.8216306 C91.9084785,23.9448538 91.9511486,24.0695983 92.01363,24.2278108 L92.0258214,24.2673639 L92.0425847,24.3084383 C92.1462122,24.5761826 92.2772706,24.9123841 91.9541965,26.5294985 C91.5107316,28.7383884 90.8782989,29.6039933 90.6954268,29.8169717 L90.1041403,30.5030663 L89.9837494,31.4021393 C89.8191645,32.6374138 89.3315056,34.1465177 88.9352826,34.9923461 C88.3257089,36.285429 87.7024198,37.8416924 87.7024198,39.5926789 C87.7024198,40.9481341 87.7024198,43.2163537 90.2778688,44.0347991 C94.0511301,45.1483718 100.346503,47.3237937 102.96005,48.4145472 C103.758592,48.7568338 103.944512,49.2831947 103.952131,49.4018541 L103.952131,54.869313 Z M79.2400125,60.9559306 L56.8275106,60.9559306 L53.6379161,60.9559306 L53.08168,60.9559306 L49.8417957,60.9559306 L27.446057,60.9559306 L27.4292937,53.4743047 C27.4292937,53.0224863 27.8819022,52.1112432 29.0964779,51.5909674 C32.3013117,50.2537675 40.1541452,47.5504635 44.9240596,46.1448063 C47.5909447,45.3065843 47.5909447,43.0155455 47.5909447,41.342144 C47.5909447,39.315807 46.8564084,37.4826717 46.1371114,35.9583551 C45.6387848,34.8965058 44.9987324,32.9842643 44.7747141,31.306299 L44.6558472,30.4057048 L44.0630368,29.7180889 C43.7353909,29.3392917 42.9094185,28.1496553 42.3440389,25.3246494 C41.9036218,23.1172807 42.0986854,22.6152603 42.2693661,22.1710483 L42.2724139,22.1664844 L42.2998448,22.091942 C42.3608021,21.9352508 42.4187116,21.7800808 42.4644297,21.6233896 L42.4964323,21.5138579 L42.5208152,21.4012836 C42.8316978,19.9454243 42.4248074,15.7588781 41.9965818,13.3978607 C41.8030422,12.3360114 42.0453477,9.32845258 44.0295102,6.79705253 C45.7927022,4.54556691 48.4824463,3.28290944 52.0240696,3.04406941 L54.9058294,3.04711196 C59.2429465,3.3437604 61.5989489,5.24687426 62.8120006,6.79705253 C64.7961631,9.32845258 65.0384687,12.3344901 64.844929,13.3932969 C64.4258471,15.6949845 64.0128609,19.9515094 64.3191717,21.3875921 L64.3328871,21.4530069 L64.3496503,21.5169004 C64.4136556,21.7633468 64.4944241,21.9824103 64.5843362,22.202995 C64.7413015,22.6122177 64.937889,23.1218445 64.495948,25.3246494 C63.9305684,28.1526979 63.1076439,29.3362491 62.779998,29.7135251 L62.1826158,30.4057048 L62.0637489,31.3108628 C61.8427784,32.9888281 61.2042499,34.8949845 60.7028755,35.9568338 C60.0475838,37.3518422 59.7427969,39.0815308 59.7427969,41.4045163 C59.7427969,43.0763965 59.7427969,45.3643927 62.3243416,46.1828381 C62.9598223,46.3699548 63.6486406,46.5814119 64.3694615,46.8111243 C64.3648897,46.820252 64.3633658,46.8309009 64.358794,46.8415498 C66.029026,47.3663894 67.8775583,47.974899 69.6910401,48.5925362 C73.1457992,49.7989066 76.4603563,51.0478726 78.1107772,51.7689565 C78.9702762,52.1386261 79.2400125,52.5508914 79.2400125,53.4743047 L79.2400125,60.9559306 Z M24.3814251,53.4743047 L24.3814251,54.869313 L23.5965989,54.869313 L23.1485622,54.869313 L20.5304431,54.869313 L3.04786863,54.869313 L3.04786863,49.4018541 C3.0554883,49.2831947 3.24140829,48.7568338 4.03994987,48.4145472 C6.65349722,47.3237937 12.9488699,45.1483718 16.7221312,44.0347991 C19.2960563,43.2163537 19.2960563,40.9481341 19.2960563,39.5926789 C19.2960563,37.8416924 18.6742911,36.285429 18.0647174,34.9923461 C17.6684944,34.1465177 17.1808355,32.6374138 17.0162506,31.4021393 L16.8973837,30.5030663 L16.3045732,29.8169717 C16.1217011,29.6039933 15.4892684,28.7383884 15.0458035,26.5294985 C14.7227294,24.9123841 14.8537878,24.5761826 14.9574153,24.3084383 L14.9741786,24.2673639 L14.987894,24.2278108 C15.0488514,24.0695983 15.0915215,23.9448538 15.126572,23.8216306 L15.1616225,23.7105776 L15.1860054,23.5964821 C15.4877444,22.1938674 15.0549471,18.4804374 14.7669235,16.8967911 C14.6312934,16.1513668 14.8294048,13.8968386 16.2969536,12.0211077 C17.6121089,10.3431424 19.6358936,9.39843119 22.3149702,9.21435702 L24.6023956,9.21435702 C27.8758065,9.44559068 29.6405224,10.8649394 30.5472633,12.0211077 C32.0102403,13.8937961 32.2113996,16.152888 32.0757694,16.8952698 C31.7709826,18.5686713 31.36714,22.236463 31.6551636,23.5812693 L31.667355,23.6451628 L31.6841183,23.7075351 C31.73898,23.9220347 31.8090809,24.1152365 31.8837537,24.306917 C31.9873813,24.57314 32.1184396,24.9154267 31.7953655,26.5294985 C31.3534246,28.7399097 30.7225158,29.6024721 30.5381197,29.8139292 L29.9453093,30.501545 L29.8249185,31.4021393 C29.6603336,32.6434989 29.1726746,34.148039 28.7734038,34.9923461 C28.2065002,36.201759 27.9428596,37.6789161 27.9428596,39.6444022 C27.9428596,41.0013787 27.9428596,43.2726408 30.4405879,44.0621821 C32.0178599,44.5276919 33.9822113,45.1742334 35.9221797,45.8481578 C32.7142979,46.9449964 29.6603336,48.0570478 27.8940937,48.7933444 C25.519804,49.8110768 24.3814251,51.8267649 24.3814251,53.4743047 Z M104.162434,45.6184454 C101.462023,44.4896601 95.0874055,42.2807701 91.1404156,41.1154742 C90.8036261,41.008985 90.7502884,40.992251 90.7502884,39.5926789 C90.7502884,38.4365106 91.2288038,37.2727359 91.6936037,36.2884716 C92.1949781,35.2174947 92.7908365,33.4178274 93.0057112,31.8022344 C93.6030934,31.1085334 94.4183983,29.7378655 94.9426317,27.1273592 C95.4028599,24.8256715 95.1879851,23.990492 94.8816743,23.2039933 C94.8527196,23.1203233 94.8176691,23.0381745 94.7932861,22.9575469 C94.6789911,22.4159734 94.8374802,19.6137865 95.2306553,17.4383646 C95.5049635,15.9490373 95.1605543,12.7756596 93.1047669,10.146898 C91.8063749,8.49023057 89.3238859,6.45172332 84.7840856,6.17028762 L82.2970248,6.17028762 C77.836469,6.45172332 75.3494082,8.49023057 74.0525401,10.146898 C71.9952288,12.7756596 71.6553915,15.9490373 71.9251278,17.4383646 C72.3228747,19.6137865 72.478316,22.4159734 72.3640209,22.946898 C72.3411619,23.0381745 72.3076353,23.1203233 72.2756327,23.2039933 C71.9723698,23.990492 71.7544472,24.8256715 72.2161993,27.1273592 C72.7389087,29.7378655 73.5542136,31.1085334 74.1531198,31.8022344 C74.3679945,33.4178274 74.9638528,35.2174947 75.4682751,36.2884716 C75.8355433,37.0704065 76.0092718,38.1352983 76.0092718,39.6444022 C76.0092718,41.0439743 75.9559341,41.0591871 75.6404797,41.1595912 C72.9949297,41.9400048 69.3496788,43.1980984 66.4404882,44.278203 C65.3036332,43.9070121 64.218592,43.567768 63.2463219,43.2802472 C62.8561947,43.157024 62.7906655,43.1372474 62.7906655,41.4045163 C62.7906655,39.5409556 63.0055403,38.2235322 63.4596727,37.2529594 C64.0844858,35.9294509 64.8235939,33.7023057 65.0857106,31.7063941 C65.8293906,30.8468743 66.8382351,29.1521749 67.4843832,25.9240314 C68.0558586,23.0777276 67.7876462,22.0402187 67.4127583,21.0696458 C67.3716121,20.9661992 67.3289419,20.8657951 67.2999872,20.7516995 C67.1597852,20.0975517 67.3533249,16.6305681 67.8440317,13.937913 C68.1808212,12.0941288 67.7586914,8.16924174 65.2137211,4.92132161 C63.6059704,2.86912289 60.529147,0.349893035 55.007933,0.00304254813 L51.9265378,0 C46.3108399,0.349893035 43.2370644,2.86912289 41.6293137,4.92132161 C39.0843434,8.16924174 38.6622136,12.0941288 38.9974791,13.9394343 C39.486662,16.6305681 39.6832495,20.0975517 39.5399997,20.765391 C39.509521,20.8657951 39.4683748,20.9661992 39.4302764,21.0696458 C39.0523407,22.0402187 38.7871762,23.0777276 39.3556037,25.9240314 C40.0047997,29.1521749 41.0136442,30.8468743 41.7542763,31.7063941 C42.0194408,33.7023057 42.7570251,35.9294509 43.3787903,37.2529594 C43.9533135,38.4730212 44.5430761,39.9121464 44.5430761,41.342144 C44.5430761,43.0733539 44.4775469,43.0946518 44.0599889,43.2254813 C43.0237136,43.5297362 41.8457123,43.8978845 40.6067537,44.294937 C37.6899435,43.2117899 34.0203096,41.9445686 31.3595203,41.1595912 C31.0440659,41.0591871 30.9907282,41.0439743 30.9907282,39.6444022 C30.9907282,38.1352983 31.1644567,37.0704065 31.5332488,36.2884716 C32.0376711,35.2174947 32.6320055,33.4178274 32.8468802,31.8022344 C33.4457864,31.1085334 34.2610913,29.7378655 34.7838007,27.1273592 C35.2455528,24.8256715 35.0276302,23.990492 34.7243673,23.2039933 C34.6908407,23.1203233 34.6588381,23.0381745 34.6344552,22.946898 C34.521684,22.4159734 34.6771253,19.6137865 35.0733482,17.4383646 C35.3446085,15.9490373 35.0032473,12.7756596 32.9474599,10.146898 C31.6505918,8.49023057 29.163531,6.45172332 24.7029752,6.17028762 L22.2143905,6.17028762 C17.6761141,6.45172332 15.1936251,8.49023057 13.8952331,10.146898 C11.8379218,12.7756596 11.4965605,15.9490373 11.7678208,17.4383646 C12.1625198,19.6137865 12.3225329,22.4159734 12.2051899,22.9575469 C12.1823309,23.0381745 12.1472804,23.1203233 12.1183257,23.2039933 C11.8120149,23.990492 11.5971401,24.8256715 12.0573683,27.1273592 C12.5800778,29.7378655 13.3969066,31.1085334 13.9942888,31.8022344 C14.2091635,33.4178274 14.8050219,35.2174947 15.3079202,36.2884716 C15.7711962,37.2727359 16.2497116,38.4365106 16.2497116,39.5926789 C16.2497116,40.992251 16.1963739,41.008985 15.8595844,41.1154742 C11.9125945,42.2807701 5.5379773,44.4896601 2.83756569,45.6184454 C0.920456326,46.4399334 0,48.069218 0,49.4018541 L0,55.5538864 C0,56.4240551 0.518137667,57.9118612 2.38800507,57.9118612 L20.5304431,57.9118612 L23.1485622,57.9118612 L23.5965989,57.9118612 L24.3814251,57.9118612 L24.3814251,61.0821963 C24.3814251,62.1607797 25.0230014,64 27.3378577,64 L49.8417957,64 L53.08168,64 L53.6379161,64 L56.8275106,64 L79.3329725,64 C81.6463048,64 82.2878812,62.1607797 82.2878812,61.0821963 L82.2878812,57.9118612 L83.4034011,57.9118612 L83.8529617,57.9118612 L86.4695569,57.9118612 L104.611995,57.9118612 C106.481862,57.9118612 107,56.4240551 107,55.5538864 L107,49.4018541 C107,48.069218 106.079544,46.4399334 104.162434,45.6184454 Z" id="Fill-1" fill="#9348FF" mask="url(#mask-2)"></path>
                        </g>
                    </g>
                </g>
            </g>
        </g>
    </g>
</svg>